#!OML:ASF H:\Martial Arts Walks\Project 1\Capture day 1\Session 1\male.ASF
:FULLY-SPECIFIED
:DEGREES
2083
root -0.208331 13.7829 -31.1194 14.2976 -22.9407 -15.8774
lowerback 8.64689 -1.73141 4.16282
upperback -1.75323 -1.50703 6.09581
thorax -6.66438 -0.795032 4.31561
lowerneck -4.09378 -11.3665 -13.1902
upperneck 26.2633 -16.7599 8.0081
head 10.9581 -8.3516 3.03834
rclavicle 9.15652e-014 -2.48481e-014
rhumerus -77.9712 27.4265 -97.9054
rradius 110.099
rwrist -68.9156
rhand -1.36752 -21.9919
rfingers 7.12502
rthumb 24.2799 -50.4744
lclavicle 9.15652e-014 -2.48481e-014
lhumerus 56.3931 22.2377 85.051
lradius 15.1026
lwrist -62.3923
lhand -33.1653 35.8173
lfingers 7.12502
lthumb -6.3738 425.701
rfemur 8.14718 -10.7227 17.0076
rtibia 38.9366
rfoot -26.0576 -33.4204
rtoes -29.3533
lfemur -75.1236 28.602 -10.4566
ltibia 78.9943
lfoot -9.45958 -7.79816
ltoes 4.0358
2084
root -0.207327 13.7826 -31.1169 14.3062 -22.9586 -15.8809
lowerback 8.67213 -1.79183 4.08686
upperback -1.74096 -1.59273 6.15023
thorax -6.65858 -0.833464 4.4298
lowerneck -3.81062 -11.5648 -13.4289
upperneck 26.236 -17.075 8.08748
head 10.967 -8.52065 3.0693
rclavicle 3.926e-014 -2.98177e-014
rhumerus -77.9505 27.6416 -97.9244
rradius 110.094
rwrist -68.8977
rhand -1.32716 -21.9557
rfingers 7.12502
rthumb 24.3186 -50.433
lclavicle 3.926e-014 -2.98177e-014
lhumerus 56.3626 22.4207 84.9537
lradius 15.1231
lwrist -62.3149
lhand -33.1542 35.8034
lfingers 7.12502
lthumb -6.36307 425.688
rfemur 8.15253 -10.7219 16.9902
rtibia 38.9159
rfoot -26.0333 -33.4135
rtoes -29.3695
lfemur -75.1301 28.6243 -10.4659
ltibia 79.0121
lfoot -9.4752 -7.79993
ltoes 4.03315
2085
root -0.206389 13.7821 -31.1146 14.3143 -22.9733 -15.8881
lowerback 8.70015 -1.85082 4.01815
upperback -1.72951 -1.67553 6.20317
thorax -6.65525 -0.870803 4.53817
lowerneck -3.53051 -11.7515 -13.6527
upperneck 26.2067 -17.3749 8.16372
head 10.9731 -8.68177 3.09901
rclavicle 3.17062e-014 1.11319e-014
rhumerus -77.9257 27.8448 -97.9404
rradius 110.084
rwrist -68.8737
rhand -1.19054 -21.8775
rfingers 7.12502
rthumb 24.4496 -50.3372
lclavicle 3.17062e-014 1.11319e-014
lhumerus 56.3339 22.5972 84.8644
lradius 15.1457
lwrist -62.266
lhand -33.1521 35.7985
lfingers 7.12502
lthumb -6.36105 425.683
rfemur 8.15976 -10.7205 16.9789
rtibia 38.8963
rfoot -26.0093 -33.4099
rtoes -29.3789
lfemur -75.1362 28.646 -10.4699
ltibia 79.0317
lfoot -9.493 -7.8035
ltoes 4.03275
2086
root -0.20554 13.7816 -31.1125 14.3207 -22.9853 -15.8957
lowerback 8.73105 -1.90721 3.95577
upperback -1.71701 -1.75428 6.25102
thorax -6.65263 -0.906485 4.63711
lowerneck -3.26595 -11.9274 -13.8528
upperneck 26.1808 -17.6594 8.23191
head 10.9792 -8.83393 3.12372
rclavicle -7.52897e-014 4.55217e-014
rhumerus -77.8912 28.0306 -97.9539
rradius 110.07
rwrist -68.8515
rhand -1.00669 -21.7844
rfingers 7.12502
rthumb 24.6258 -50.2202
lclavicle -7.52897e-014 4.55217e-014
lhumerus 56.3064 22.7558 84.7697
lradius 15.1717
lwrist -62.2289
lhand -33.1552 35.797
lfingers 7.12502
lthumb -6.36407 425.681
rfemur 8.16715 -10.7179 16.9709
rtibia 38.8803
rfoot -25.9921 -33.4063
rtoes -29.3791
lfemur -75.1411 28.6657 -10.4717
ltibia 79.0516
lfoot -9.51268 -7.80637
ltoes 4.02941
2087
root -0.204801 13.781 -31.1107 14.3258 -22.9946 -15.8997
lowerback 8.76285 -1.96082 3.89571
upperback -1.70388 -1.82931 6.29337
thorax -6.64996 -0.940529 4.72838
lowerneck -3.02152 -12.0931 -14.0344
upperneck 26.162 -17.9307 8.29973
head 10.9889 -8.97763 3.14621
rclavicle -5.48894e-014 8.72665e-014
rhumerus -77.8481 28.2002 -97.9645
rradius 110.056
rwrist -68.8376
rhand -0.802604 -21.6984
rfingers 7.12502
rthumb 24.8214 -50.1073
lclavicle -5.48894e-014 8.72665e-014
lhumerus 56.2758 22.8906 84.6579
lradius 15.2016
lwrist -62.1878
lhand -33.1524 35.7914
lfingers 7.12502
lthumb -6.36131 425.676
rfemur 8.17248 -10.7143 16.9631
rtibia 38.87
rfoot -25.9833 -33.4039
rtoes -29.3718
lfemur -75.1468 28.6814 -10.4762
ltibia 79.0706
lfoot -9.53198 -7.80772
ltoes 4.02737
2088
root -0.204175 13.7804 -31.1092 14.3297 -23.0033 -15.8979
lowerback 8.79297 -2.009 3.83755
upperback -1.68805 -1.8976 6.32776
thorax -6.6438 -0.971471 4.80887
lowerneck -2.80048 -12.2503 -14.1946
upperneck 26.1491 -18.1911 8.36975
head 11.0025 -9.11337 3.16638
rclavicle -1.35422e-014 1.94809e-014
rhumerus -77.795 28.3474 -97.9701
rradius 110.043
rwrist -68.8365
rhand -0.642988 -21.646
rfingers 7.12502
rthumb 24.9744 -50.0338
lclavicle -1.35422e-014 1.94809e-014
lhumerus 56.253 22.9999 84.543
lradius 15.2325
lwrist -62.1513
lhand -33.1507 35.7873
lfingers 7.12502
lthumb -6.35968 425.672
rfemur 8.1729 -10.7097 16.9527
rtibia 38.8665
rfoot -25.9824 -33.4019
rtoes -29.3585
lfemur -75.1532 28.6935 -10.4859
ltibia 79.0863
lfoot -9.54814 -7.80621
ltoes 4.01575
2089
root -0.203696 13.7799 -31.1078 14.3333 -23.0109 -15.8905
lowerback 8.82047 -2.05329 3.77936
upperback -1.67219 -1.96114 6.35731
thorax -6.63627 -1.00017 4.88339
lowerneck -2.59648 -12.3987 -14.3435
upperneck 26.1425 -18.44 8.44281
head 11.0199 -9.2419 3.1865
rclavicle 7.83212e-014 -1.53064e-014
rhumerus -77.7461 28.479 -97.9733
rradius 110.039
rwrist -68.8477
rhand -0.588214 -21.6499
rfingers 7.12502
rthumb 25.0268 -50.0304
lclavicle 7.83212e-014 -1.53064e-014
lhumerus 56.227 23.0845 84.4121
lradius 15.2639
lwrist -62.1025
lhand -33.1497 35.7845
lfingers 7.12502
lthumb -6.35869 425.669
rfemur 8.16797 -10.7043 16.9402
rtibia 38.8695
rfoot -25.9889 -33.4003
rtoes -29.3433
lfemur -75.1613 28.701 -10.501
ltibia 79.0978
lfoot -9.56019 -7.80216
ltoes 4.00585
2090
root -0.203334 13.7794 -31.1067 14.3377 -23.0172 -15.8799
lowerback 8.84178 -2.09208 3.72639
upperback -1.65397 -2.01772 6.38043
thorax -6.62326 -1.02579 4.94657
lowerneck -2.41004 -12.5396 -14.4714
upperneck 26.1383 -18.6779 8.51304
head 11.0381 -9.36306 3.20308
rclavicle -4.91992e-014 -1.78906e-015
rhumerus -77.6983 28.5877 -97.9737
rradius 110.042
rwrist -68.8649
rhand -0.624919 -21.6915
rfingers 7.12502
rthumb 24.9917 -50.0769
lclavicle -4.91992e-014 -1.78906e-015
lhumerus 56.2076 23.1432 84.2775
lradius 15.2944
lwrist -62.0475
lhand -33.1551 35.7993
lfingers 7.12502
lthumb -6.36399 425.684
rfemur 8.15816 -10.6974 16.928
rtibia 38.8773
rfoot -26.0031 -33.3983
rtoes -29.3298
lfemur -75.1714 28.705 -10.5194
ltibia 79.1056
lfoot -9.56771 -7.79701
ltoes 3.99976
2091
root -0.203077 13.7791 -31.1056 14.3437 -23.0219 -15.8668
lowerback 8.85878 -2.12892 3.67276
upperback -1.63611 -2.07216 6.40245
thorax -6.60813 -1.05039 5.00841
lowerneck -2.23463 -12.6701 -14.5917
upperneck 26.1355 -18.9009 8.58375
head 11.0566 -9.47634 3.22027
rclavicle 3.63776e-014 -3.12092e-014
rhumerus -77.6641 28.689 -97.9745
rradius 110.057
rwrist -68.8813
rhand -0.751293 -21.7672
rfingers 7.12502
rthumb 24.8706 -50.1694
lclavicle 3.63776e-014 -3.12092e-014
lhumerus 56.1942 23.1975 84.1545
lradius 15.3232
lwrist -61.9982
lhand -33.1709 35.8301
lfingers 7.12502
lthumb -6.3792 425.714
rfemur 8.14463 -10.6912 16.9158
rtibia 38.8866
rfoot -26.023 -33.3946
rtoes -29.319
lfemur -75.184 28.7056 -10.5404
ltibia 79.1106
lfoot -9.57212 -7.79142
ltoes 4.00551
